<?xml version="1.0" standalone="no"?>
<!DOCTYPE svg PUBLIC "-//W3C//DTD SVG 20010904//EN"
 "http://www.w3.org/TR/2001/REC-SVG-20010904/DTD/svg10.dtd">
<svg version="1.0" xmlns="http://www.w3.org/2000/svg"
 width="460.000000pt" height="460.000000pt" viewBox="0 0 460.000000 460.000000"
 preserveAspectRatio="xMidYMid meet">
<metadata>
Created by potrace 1.11, written by Peter Selinger 2001-2013
</metadata>
<g transform="translate(0.000000,460.000000) scale(0.100000,-0.100000)"
fill="#000000" stroke="none">
<path d="M1390 4590 c0 -5 -10 -14 -21 -21 -15 -8 -19 -8 -15 0 4 6 3 11 -3
11 -5 0 -13 -5 -16 -10 -3 -6 -18 -8 -33 -5 -15 2 -9 -2 13 -9 22 -8 51 -12
64 -9 20 5 22 3 14 -13 -5 -11 -8 -31 -7 -46 2 -16 -1 -28 -6 -28 -5 0 -16 -3
-26 -7 -12 -4 -15 -3 -10 5 4 7 2 12 -3 12 -6 0 -11 12 -11 28 0 15 -4 22 -8
16 -4 -6 -15 -14 -26 -17 -10 -4 -16 -13 -13 -22 4 -9 1 -12 -7 -9 -7 3 -16
-2 -19 -10 -4 -9 -2 -16 4 -16 6 0 6 -6 0 -19 -6 -10 -7 -21 -4 -25 3 -3 2 -6
-3 -6 -10 0 -28 40 -38 83 -4 15 -11 25 -17 22 -5 -4 -7 -16 -3 -27 7 -24 -14
-42 -32 -27 -8 7 -15 6 -19 -2 -6 -8 -10 -7 -16 2 -8 12 -11 11 -19 -3 -6 -10
-18 -14 -32 -11 l-23 4 22 -13 c21 -13 20 -14 -28 -37 -80 -40 -113 -83 -153
-200 -36 -104 -45 -181 -26 -211 8 -12 12 -12 18 -2 9 13 149 52 188 52 12 0
25 -7 28 -16 3 -8 11 -12 17 -9 5 4 18 0 28 -9 17 -15 20 -15 34 -1 20 19 34
19 45 -1 6 -12 28 -18 73 -21 46 -3 70 -10 86 -25 19 -18 29 -20 79 -13 31 4
53 10 47 13 -20 13 -25 51 -9 74 9 12 16 30 16 40 0 10 1 18 3 18 9 0 124 22
140 26 9 3 15 9 12 14 -3 5 4 30 16 55 17 37 26 45 41 42 15 -4 18 -2 14 10
-5 12 -3 13 6 5 8 -6 29 -7 56 -2 31 5 47 4 56 -6 11 -10 21 -9 59 10 25 13
42 27 37 32 -5 5 -11 28 -15 52 l-6 42 88 -1 c80 -1 112 4 166 26 14 6 17 1
17 -29 0 -20 4 -36 10 -36 8 0 7 21 -4 71 0 3 17 22 39 42 24 22 34 37 25 37
-11 1 -10 4 4 15 11 8 16 15 10 15 -5 0 -22 -13 -37 -30 -16 -16 -33 -30 -38
-30 -6 0 -8 -4 -5 -8 2 -4 -3 -8 -12 -9 -9 -1 -49 -4 -88 -8 -58 -6 -82 -4
-125 11 -30 10 -56 21 -59 24 -3 3 -26 24 -52 48 -26 23 -44 42 -40 42 4 0 0
6 -9 13 -9 7 -19 22 -23 35 -9 26 -43 29 -128 11 -39 -9 -53 -9 -56 0 -5 14
-232 16 -232 1z m339 -34 c-2 -2 -26 -6 -54 -10 -34 -4 -45 -3 -35 4 14 9 99
15 89 6z m-189 -36 c4 -6 13 -9 21 -7 8 2 10 2 6 -1 -13 -7 61 -42 90 -43 16
0 22 -3 16 -6 -23 -9 -14 -24 22 -39 20 -8 33 -19 30 -24 -4 -6 6 -15 22 -21
22 -8 24 -12 13 -19 -12 -8 -11 -10 6 -10 23 0 48 -23 38 -33 -4 -3 -19 -3
-35 0 -24 5 -28 3 -23 -11 9 -23 -9 -20 -35 7 -13 15 -19 30 -15 40 4 11 1 17
-9 17 -8 0 -17 6 -20 13 -2 6 -7 -2 -11 -19 -4 -17 -2 -44 4 -60 10 -27 10
-28 -5 -13 -11 11 -16 34 -16 75 0 34 -4 52 -9 45 -6 -11 -10 -10 -17 4 -6 10
-13 13 -16 8 -9 -14 4 -54 14 -47 5 3 9 -10 8 -28 -1 -31 -1 -32 -9 -8 -4 14
-9 21 -10 15 -3 -17 -19 29 -19 57 -1 15 -6 30 -13 34 -7 4 -8 3 -4 -4 4 -7 3
-12 -2 -12 -5 0 -12 13 -15 29 -4 19 -15 32 -36 40 -16 7 -32 20 -35 28 -5 13
-1 14 26 9 18 -3 35 -11 38 -16z m220 0 c0 -6 -25 -9 -57 -8 l-58 1 55 7 c30
4 56 7 58 8 1 1 2 -2 2 -8z m-140 -14 c0 -3 -4 -8 -10 -11 -5 -3 -10 -1 -10 4
0 6 5 11 10 11 6 0 10 -2 10 -4z m-182 -31 c-3 -3 -9 2 -12 12 -6 14 -5 15 5
6 7 -7 10 -15 7 -18z m-28 -42 c-8 -3 -24 -13 -34 -22 -18 -15 -18 -15 -7 7 7
13 21 22 34 21 15 0 17 -2 7 -6z m59 -36 c0 -27 -2 -29 -9 -12 -12 28 -12 57
0 50 6 -3 10 -21 9 -38z m61 -2 c0 -23 -5 -35 -14 -35 -13 0 -13 15 0 58 7 23
14 12 14 -23z m34 -38 c1 -28 5 -41 13 -40 8 2 12 -7 11 -22 -3 -30 -8 -31
-28 -7 -10 11 -14 34 -12 71 4 62 15 61 16 -2z m-77 21 c-3 -8 -6 -5 -6 6 -1
11 2 17 5 13 3 -3 4 -12 1 -19z m-67 -3 c0 -8 -4 -15 -10 -15 -5 0 -7 7 -4 15
4 8 8 15 10 15 2 0 4 -7 4 -15z m-37 -8 c3 -8 2 -19 -3 -26 -5 -9 -9 -4 -12
13 -5 27 6 36 15 13z m64 -9 c-3 -8 -6 -5 -6 6 -1 11 2 17 5 13 3 -3 4 -12 1
-19z m62 -68 c1 -13 0 -13 -9 0 -5 8 -9 24 -9 35 l0 20 9 -20 c5 -11 9 -27 9
-35z m184 -70 c3 -11 1 -23 -4 -26 -5 -3 -9 6 -9 20 0 31 6 34 13 6z m-254
-269 c-15 -5 -22 6 -14 19 6 9 10 9 16 -1 5 -8 4 -15 -2 -18z m-6 -18 c-7 -2
-19 -2 -25 0 -7 3 -2 5 12 5 14 0 19 -2 13 -5z"/>
<path d="M1685 4400 c-8 -13 5 -13 25 0 13 8 13 10 -2 10 -9 0 -20 -4 -23 -10z"/>
<path d="M1715 4340 c3 -5 11 -10 16 -10 6 0 7 5 4 10 -3 6 -11 10 -16 10 -6
0 -7 -4 -4 -10z"/>
<path d="M1830 4590 c0 -4 17 -24 37 -45 l37 -39 7 25 c17 60 13 68 -36 67
-25 0 -45 -4 -45 -8z"/>
<path d="M2193 4550 c0 -30 2 -43 4 -27 2 15 2 39 0 55 -2 15 -4 2 -4 -28z"/>
<path d="M2365 4589 c-4 -6 -5 -12 -2 -15 2 -3 7 2 10 11 7 17 1 20 -8 4z"/>
<path d="M4085 4590 c-13 -5 -14 -9 -5 -9 8 0 24 4 35 9 13 5 14 9 5 9 -8 0
-24 -4 -35 -9z"/>
<path d="M4382 4588 c-4 -4 -29 -8 -57 -10 -47 -3 -48 -4 -25 -15 l25 -12 -25
-1 -25 -2 25 -7 c23 -7 23 -8 -12 -15 -26 -5 -44 -2 -60 8 -13 7 -45 16 -73
20 -34 4 -44 3 -30 -3 18 -9 17 -10 -7 -10 -16 -1 -28 -6 -28 -12 0 -6 7 -8
16 -5 11 4 14 1 12 -12 -5 -26 -31 -21 -40 8 -5 17 -6 11 -3 -20 4 -45 -11
-38 -18 9 -7 43 -16 31 -12 -15 4 -46 3 -48 -12 -29 -15 19 -15 18 -9 -13 5
-28 2 -35 -13 -39 -14 -4 -19 -12 -17 -31 3 -26 5 -27 97 -35 52 -4 124 -6
161 -5 43 2 65 0 61 -7 -2 -5 2 -1 11 9 8 10 13 23 10 28 -10 16 -12 78 -2 71
6 -3 8 3 4 14 -4 13 1 29 15 44 l21 24 -17 -28 c-17 -29 -12 -54 5 -27 6 8 10
10 10 4 0 -6 -9 -23 -20 -37 -21 -27 -26 -42 -10 -32 6 3 7 -1 4 -12 -5 -17
-5 -17 6 0 7 11 13 24 14 30 4 23 57 118 76 137 11 11 20 24 20 29 0 10 -68 9
-78 -1z m52 -19 c11 -11 -30 -26 -49 -17 -18 7 -17 8 3 4 17 -3 22 -1 18 9 -4
12 17 15 28 4z m-228 -37 c8 -5 7 -11 -4 -22 -14 -13 -15 -12 -9 2 4 13 -1 18
-21 21 -26 4 -26 4 -2 5 14 1 30 -2 36 -6z m121 -34 c-3 -8 -6 -5 -6 6 -1 11
2 17 5 13 3 -3 4 -12 1 -19z m67 7 c-4 -8 -11 -15 -16 -15 -6 0 -5 6 2 15 7 8
14 15 16 15 2 0 1 -7 -2 -15z m-157 -57 c-3 -8 -6 -5 -6 6 -1 11 2 17 5 13 3
-3 4 -12 1 -19z m-97 -50 c0 -16 -3 -19 -11 -11 -6 6 -8 16 -5 22 11 17 16 13
16 -11z"/>
<path d="M2341 4564 c0 -11 3 -14 6 -6 3 7 2 16 -1 19 -3 4 -6 -2 -5 -13z"/>
<path d="M4201 4571 c-11 -7 -5 -11 23 -16 20 -4 40 -5 43 -1 4 3 -7 6 -23 6
-22 0 -26 3 -14 10 13 9 13 10 0 10 -8 0 -21 -4 -29 -9z"/>
<path d="M4531 4548 c-37 -7 -50 -13 -40 -19 9 -5 14 -28 15 -66 3 -159 5
-183 12 -183 7 0 22 76 38 198 5 33 10 42 25 42 12 0 19 7 19 20 0 11 -3 19
-7 19 -5 -1 -32 -6 -62 -11z"/>
<path d="M4248 4533 c7 -3 16 -2 19 1 4 3 -2 6 -13 5 -11 0 -14 -3 -6 -6z"/>
<path d="M1290 4519 c0 -5 5 -7 10 -4 6 3 10 8 10 11 0 2 -4 4 -10 4 -5 0 -10
-5 -10 -11z"/>
<path d="M2295 4510 c-3 -5 1 -10 10 -10 9 0 13 5 10 10 -3 6 -8 10 -10 10 -2
0 -7 -4 -10 -10z"/>
<path d="M3908 4504 c-16 -8 -28 -22 -28 -32 1 -16 1 -16 11 1 6 10 22 17 39
17 17 0 30 5 30 11 0 5 -4 8 -9 5 -5 -4 -11 -2 -13 3 -1 5 -15 3 -30 -5z"/>
<path d="M4462 4504 c-12 -8 -22 -21 -22 -27 0 -7 4 -6 11 3 8 12 9 8 5 -15
-3 -16 -3 -24 0 -17 5 10 9 10 20 1 12 -9 14 -4 14 30 0 22 -1 41 -3 41 -1 0
-13 -7 -25 -16z m15 -26 c-3 -8 -6 -5 -6 6 -1 11 2 17 5 13 3 -3 4 -12 1 -19z"/>
<path d="M2568 4483 c7 -3 16 -2 19 1 4 3 -2 6 -13 5 -11 0 -14 -3 -6 -6z"/>
<path d="M2645 4428 c0 -46 14 -51 16 -5 1 29 2 28 8 -10 4 -24 11 -46 16 -50
4 -5 5 7 1 26 -3 18 -6 41 -6 51 0 10 -8 20 -17 22 -15 4 -18 -2 -18 -34z"/>
<path d="M3842 4454 c4 -3 0 -13 -8 -21 -8 -8 -12 -19 -9 -24 4 -5 0 -9 -9 -9
-8 0 -16 4 -18 9 -1 5 -11 -2 -21 -15 l-18 -24 43 1 c36 1 39 2 18 9 -22 7
-23 8 -4 9 12 1 27 -6 34 -14 17 -21 47 -19 60 4 14 27 13 34 -6 27 -8 -3 -12
-2 -9 3 3 5 1 12 -5 16 -5 3 -10 1 -10 -5 0 -6 -5 -8 -11 -5 -6 4 -8 13 -5 20
2 7 -3 16 -12 20 -9 3 -13 3 -10 -1z"/>
<path d="M4426 4425 c-9 -26 -7 -32 5 -12 6 10 9 21 6 23 -2 3 -7 -2 -11 -11z"/>
<path d="M2530 4420 c0 -6 7 -10 15 -10 8 0 15 2 15 4 0 2 -7 6 -15 10 -8 3
-15 1 -15 -4z"/>
<path d="M1038 4398 c9 -9 15 -9 24 0 9 9 7 12 -12 12 -19 0 -21 -3 -12 -12z"/>
<path d="M2935 4400 c-3 -5 -4 -14 -1 -18 3 -5 6 -47 7 -93 l2 -86 176 -21
c241 -30 221 -34 221 36 1 54 16 92 36 92 5 0 9 15 10 34 l0 33 -105 12 c-165
17 -167 17 -197 -29 -15 -22 -34 -40 -43 -40 -13 0 -12 4 5 18 20 15 44 52 44
66 0 10 -149 6 -155 -4z m412 -52 c-3 -8 -6 -5 -6 6 -1 11 2 17 5 13 3 -3 4
-12 1 -19z m-252 -38 c5 -8 11 -8 19 -1 16 13 58 10 74 -5 12 -13 16 -52 7
-77 -5 -10 -17 -12 -51 -7 -24 4 -47 8 -49 8 -3 1 -14 2 -25 2 -17 0 -20 7
-20 38 0 21 3 42 7 45 10 10 31 8 38 -3z m222 -97 c-2 -16 -4 -3 -4 27 0 30 2
43 4 28 2 -16 2 -40 0 -55z"/>
<path d="M3097 4261 c-4 -17 -3 -21 5 -13 5 5 8 16 6 23 -3 8 -7 3 -11 -10z"/>
<path d="M3417 4389 c7 -7 15 -10 18 -7 3 3 -2 9 -12 12 -14 6 -15 5 -6 -5z"/>
<path d="M3528 4373 c7 -3 16 -2 19 1 4 3 -2 6 -13 5 -11 0 -14 -3 -6 -6z"/>
<path d="M4380 4350 c-6 -11 -8 -20 -6 -20 3 0 10 9 16 20 6 11 8 20 6 20 -3
0 -10 -9 -16 -20z"/>
<path d="M2655 4350 c3 -5 14 -10 23 -10 15 0 15 2 2 10 -20 13 -33 13 -25 0z"/>
<path d="M3515 4350 c-3 -5 -2 -10 4 -10 5 0 13 5 16 10 3 6 2 10 -4 10 -5 0
-13 -4 -16 -10z"/>
<path d="M3550 4303 c5 -73 0 -92 -26 -106 -29 -15 -27 -19 29 -37 28 -9 41
-9 51 -1 22 19 186 43 251 38 33 -2 86 -13 118 -23 57 -18 59 -19 54 -49 -6
-35 -9 -34 101 -38 39 -2 72 0 72 5 0 4 9 8 19 8 10 0 43 11 73 25 29 14 63
25 75 25 12 0 25 5 29 12 4 7 3 8 -5 4 -13 -9 -43 18 -33 29 4 5 2 6 -3 2 -6
-3 -17 -2 -25 3 -9 6 -24 3 -42 -8 -24 -14 -44 -15 -190 -4 -149 11 -164 14
-180 34 -14 19 -20 21 -40 11 -12 -6 -30 -13 -38 -16 -14 -4 -120 6 -188 18
-38 7 -34 25 6 26 27 0 27 0 4 10 -13 5 -21 13 -17 18 7 12 -46 41 -75 41 -17
0 -21 -6 -20 -27z m80 -7 c0 -2 -7 -6 -15 -10 -8 -3 -15 -1 -15 4 0 6 7 10 15
10 8 0 15 -2 15 -4z m467 -202 c-3 -3 -12 -4 -19 -1 -8 3 -5 6 6 6 11 1 17 -2
13 -5z"/>
<path d="M4387 4323 c-4 -3 -7 -11 -7 -17 0 -6 5 -5 12 2 6 6 9 14 7 17 -3 3
-9 2 -12 -2z"/>
<path d="M2418 4313 c12 -2 32 -2 45 0 12 2 2 4 -23 4 -25 0 -35 -2 -22 -4z"/>
<path d="M2508 4303 c12 -2 30 -2 40 0 9 3 -1 5 -23 4 -22 0 -30 -2 -17 -4z"/>
<path d="M2583 4293 c9 -2 25 -2 35 0 9 3 1 5 -18 5 -19 0 -27 -2 -17 -5z"/>
<path d="M2130 4265 c0 -8 7 -15 16 -15 14 0 14 3 4 15 -7 8 -14 15 -16 15 -2
0 -4 -7 -4 -15z"/>
<path d="M2213 4274 c-16 -7 -5 -34 13 -34 8 0 14 9 14 20 0 20 -5 23 -27 14z"/>
<path d="M4320 4260 c0 -5 6 -10 14 -10 8 0 18 5 21 10 3 6 -3 10 -14 10 -12
0 -21 -4 -21 -10z"/>
<path d="M3971 4234 c0 -11 3 -14 6 -6 3 7 2 16 -1 19 -3 4 -6 -2 -5 -13z"/>
<path d="M2192 4210 c-43 -10 -55 -22 -14 -14 25 5 33 3 39 -12 3 -10 2 -19
-3 -21 -6 -2 -9 -27 -6 -58 5 -65 -13 -91 -61 -86 -39 4 -49 -15 -31 -57 17
-41 19 -93 3 -89 -6 1 -13 -5 -14 -14 -3 -16 -34 -69 -41 -69 -2 0 -1 7 2 15
4 8 2 15 -4 15 -5 0 -31 9 -56 21 -39 17 -45 23 -35 35 7 9 8 14 1 14 -6 0
-14 -4 -17 -10 -3 -5 -11 -10 -16 -10 -6 0 -8 4 -5 9 3 5 -1 14 -9 21 -18 15
-20 34 -2 24 8 -5 7 -2 -2 10 -8 9 -21 14 -29 11 -12 -4 -13 -3 -2 10 7 8 10
24 7 35 -3 11 -1 20 4 20 5 0 9 -4 9 -9 0 -5 8 -17 17 -26 9 -10 24 -31 32
-49 11 -20 25 -32 41 -34 21 -2 30 4 47 37 l21 39 -24 23 c-14 13 -22 29 -20
36 3 7 -1 13 -9 13 -16 0 -45 -27 -45 -42 0 -21 -13 1 -15 26 -2 14 -12 38
-23 53 -10 15 -17 35 -14 43 4 12 2 13 -9 3 -19 -19 -22 -54 -4 -47 11 5 13 2
9 -10 -3 -9 -11 -13 -16 -10 -6 4 -8 -2 -3 -15 4 -15 3 -21 -6 -19 -17 4 -49
36 -49 49 0 5 -5 7 -11 4 -6 -4 -8 -13 -5 -21 7 -18 -5 -18 -30 1 -14 11 -15
14 -4 15 8 0 21 9 28 20 12 20 4 27 -14 11 -5 -5 -27 -11 -49 -12 -22 -1 -43
-4 -47 -6 -3 -2 1 -28 9 -59 8 -31 11 -60 6 -64 -4 -4 -53 -15 -108 -24 -55
-9 -134 -23 -175 -31 -238 -46 -373 -56 -413 -31 -12 8 -38 17 -57 21 -19 4
-45 13 -57 21 -24 15 -53 9 -53 -12 0 -7 -13 -28 -29 -46 -58 -67 -69 -102
-78 -250 -5 -75 -3 -88 10 -88 9 0 19 5 22 10 13 21 54 10 74 -19 15 -21 27
-28 41 -24 26 7 26 -14 -1 -22 -25 -8 -20 -29 9 -33 13 -2 25 4 31 17 15 28
43 17 35 -14 -7 -26 14 -44 27 -24 13 21 11 59 -3 59 -9 1 -8 4 2 9 22 13 113
8 118 -7 2 -6 9 -12 16 -12 7 0 17 -5 24 -12 9 -9 2 -16 -28 -29 -44 -20 -50
-35 -23 -55 17 -12 16 -13 -4 -14 -12 0 -26 -7 -31 -16 -6 -12 -18 -15 -36
-12 -22 4 -26 2 -27 -18 -2 -33 -3 -37 -13 -53 -6 -10 -5 -12 2 -7 21 13 13
-10 -11 -32 -30 -28 -62 -28 -90 1 -23 22 -102 34 -89 13 3 -6 -9 1 -27 15
-18 13 -56 38 -85 54 -91 53 -101 62 -86 80 7 9 34 28 59 43 l45 26 -35 14
c-87 37 -189 19 -189 -32 0 -17 -8 -27 -27 -34 -22 -8 -34 -25 -57 -83 -16
-41 -38 -85 -50 -97 -23 -26 -102 -82 -115 -82 -5 0 -28 -17 -52 -38 -24 -20
-60 -49 -79 -64 -20 -14 -53 -43 -73 -63 l-37 -37 0 -1464 0 -1464 665 0 c366
0 665 4 665 8 0 4 -6 14 -12 21 -11 10 -9 15 6 27 11 8 26 14 35 14 21 0 51
30 44 45 -3 10 -11 11 -30 4 -13 -5 -37 -9 -52 -9 -15 0 -56 -11 -91 -25 -73
-28 -102 -31 -119 -11 -10 12 -6 17 23 27 20 7 36 19 36 26 0 7 7 13 15 13 8
0 15 7 15 15 0 9 7 27 16 40 17 26 12 45 -12 45 -9 0 -45 -28 -80 -62 -35 -33
-64 -58 -64 -54 0 12 32 71 42 77 6 4 6 9 -1 13 -6 4 -18 1 -26 -7 -28 -29
-86 -59 -101 -53 -8 3 -12 10 -9 16 4 6 -21 10 -67 11 -40 0 -66 3 -58 7 17 8
20 44 5 48 -6 2 -19 -3 -30 -12 -17 -13 -18 -16 -5 -24 21 -13 3 -12 -22 1
-15 8 -19 8 -14 0 11 -17 -11 -13 -29 5 -12 13 -19 14 -28 5 -6 -6 -20 -11
-31 -11 -18 0 -18 1 -3 18 8 9 19 29 22 45 4 15 11 27 17 27 13 0 57 52 58 68
0 7 4 11 9 8 5 -3 11 1 15 9 9 26 -10 17 -50 -23 -47 -46 -94 -82 -106 -82 -5
0 8 15 29 32 21 18 54 49 74 68 49 47 75 67 210 159 129 88 213 133 235 124
18 -7 18 -23 1 -23 -8 0 -55 -25 -105 -55 -50 -30 -96 -55 -101 -55 -12 0 -71
-68 -71 -82 0 -10 11 -4 55 33 29 24 118 74 205 116 73 34 77 35 135 24 51 -9
72 -8 135 8 41 10 80 16 85 12 6 -3 1 -7 -10 -9 -27 -4 -53 -42 -29 -42 8 0
22 7 30 14 12 13 19 13 47 1 17 -8 31 -19 30 -25 -2 -5 0 -9 5 -9 25 4 52 -3
52 -13 0 -24 45 -57 68 -51 13 3 22 1 22 -6 0 -7 4 -10 9 -6 5 3 16 -4 25 -16
9 -13 19 -18 28 -13 7 4 10 4 6 -1 -5 -5 10 -16 32 -26 21 -10 74 -53 117 -96
43 -43 103 -101 133 -128 30 -28 67 -66 81 -85 15 -19 39 -48 53 -65 14 -16
26 -36 26 -42 0 -10 170 -13 815 -13 808 0 815 0 815 20 0 12 7 20 18 21 9 0
28 2 42 4 14 1 40 -4 59 -11 18 -8 44 -14 57 -14 13 0 24 -4 24 -10 0 -6 92
-10 255 -10 l255 0 0 754 c0 718 -1 754 -18 749 -10 -2 -31 1 -47 7 l-30 12
29 15 c15 8 37 13 47 10 18 -5 19 2 19 114 0 108 -7 138 -25 109 -4 -6 -11 -7
-17 -4 -6 4 -5 10 3 15 10 6 10 9 2 9 -6 0 -15 -4 -18 -10 -3 -5 -11 -10 -16
-10 -6 0 -7 4 -4 10 3 6 -4 10 -17 10 -13 0 -40 11 -60 25 -20 14 -43 25 -50
25 -9 0 -9 3 2 10 12 8 9 10 -10 8 -16 -2 -24 2 -22 10 1 8 -2 11 -7 8 -14 -9
-42 5 -34 17 3 5 1 7 -4 4 -11 -7 -63 18 -206 100 l-88 50 42 11 c27 7 49 7
60 2 12 -7 19 -5 23 5 3 10 -9 23 -38 40 -23 14 -47 25 -53 25 -6 0 -13 13
-15 30 -4 27 -2 29 19 24 13 -4 23 -2 23 4 0 6 -10 12 -22 14 -18 2 -23 10
-24 36 0 39 -27 74 -50 65 -11 -4 -12 -8 -4 -13 7 -4 9 -13 6 -19 -5 -7 -23
-3 -56 14 -63 32 -80 32 -80 1 0 -27 8 -35 44 -42 21 -3 23 -1 20 18 -4 21 -4
21 5 3 5 -12 5 -25 -2 -33 -7 -9 -6 -11 7 -6 10 4 18 0 22 -10 9 -22 -5 -34
-16 -16 -6 8 -10 12 -10 7 0 -10 -62 22 -72 37 -4 6 -8 8 -8 3 0 -4 -13 -1
-30 8 -32 17 -35 22 -21 44 7 11 13 11 32 1 24 -13 24 -13 5 8 -15 18 -16 24
-6 37 7 8 16 12 21 9 5 -3 9 -2 8 3 -4 25 2 33 19 24 40 -22 235 -111 237
-109 3 5 55 217 55 226 0 8 -72 43 -94 46 -15 2 -15 34 0 47 10 8 22 8 44 1
16 -6 30 -8 30 -5 0 3 7 0 15 -7 17 -14 35 -5 35 17 0 10 -6 14 -19 10 -14 -3
-21 2 -25 16 -3 12 -8 18 -11 15 -9 -9 -66 12 -60 22 3 5 0 12 -6 15 -5 4 -8
14 -5 24 9 26 -40 -36 -104 -133 -33 -49 -60 -85 -60 -80 0 5 13 29 29 53 24
36 28 48 19 64 -7 14 -12 16 -18 7 -6 -9 -14 -8 -38 4 -41 21 -40 22 -47 -21
-3 -21 -13 -69 -21 -108 -12 -60 -13 -71 -1 -80 12 -8 8 -17 -19 -49 -19 -22
-36 -37 -39 -35 -2 3 -12 52 -21 110 l-17 104 26 103 c31 117 32 129 14 110
-17 -17 -37 -74 -37 -107 0 -20 -2 -23 -10 -11 -16 26 -24 1 -25 -88 -1 -48
-9 -123 -18 -167 -28 -134 -19 -163 11 -40 l28 110 12 -66 c16 -85 15 -88 -6
-82 -15 3 -21 -7 -35 -64 -26 -107 -32 -173 -15 -173 8 0 20 6 27 13 11 10 13
9 7 -6 -3 -10 -6 -26 -7 -35 0 -14 -2 -13 -9 3 -5 11 -9 14 -9 7 -1 -10 -6
-10 -22 -2 -18 10 -35 -1 -142 -91 -67 -57 -124 -106 -127 -109 -3 -3 -50 -43
-105 -89 -55 -47 -130 -113 -166 -149 -57 -54 -66 -68 -63 -93 4 -29 3 -29
-18 -15 -14 10 -26 12 -33 6 -7 -6 -28 0 -61 17 -61 32 -60 31 -46 45 17 17
15 48 -3 54 -8 4 -15 13 -15 21 0 8 -4 12 -9 9 -14 -9 -7 28 8 40 10 7 11 13
3 18 -6 3 -13 2 -17 -4 -3 -5 -11 -10 -16 -10 -6 0 -8 4 -5 9 4 5 3 11 -1 14
-5 2 -2 2 5 1 6 -2 12 1 12 6 0 6 -4 10 -10 10 -5 0 -10 4 -10 9 0 5 14 9 30
9 31 -1 40 -12 18 -21 -7 -3 1 -5 19 -4 24 0 38 -8 58 -31 18 -21 31 -29 43
-25 20 8 227 173 295 237 27 24 55 47 63 50 8 3 14 19 14 37 0 28 -2 30 -17
18 -14 -12 -16 -12 -11 1 7 23 33 18 36 -7 3 -21 7 -19 60 23 31 25 76 59 99
76 40 30 41 33 47 102 4 39 9 92 12 117 l6 46 -104 9 c-57 4 -118 8 -137 8
-19 1 -36 6 -38 12 -4 12 64 192 80 212 8 11 36 12 129 6 80 -4 118 -3 118 4
0 6 -6 13 -12 15 -10 4 -10 6 0 6 6 1 12 9 12 19 0 19 -48 42 -88 42 -13 0
-22 6 -22 15 0 8 1 15 3 15 1 0 27 -7 57 -15 72 -19 67 -21 75 23 3 22 12 51
20 65 15 29 7 40 -27 43 -10 1 -25 2 -34 3 -10 1 -14 7 -10 16 3 9 -4 21 -18
31 -26 17 -7 24 -256 -109 -63 -34 -142 -90 -139 -99 0 -2 -4 -16 -10 -31 -6
-15 -14 -39 -17 -52 -3 -14 -10 -25 -15 -25 -5 0 -6 6 -4 13 15 41 13 65 -6
70 -10 3 -22 1 -25 -4 -3 -5 -10 -9 -16 -9 -7 0 -6 5 2 15 8 10 21 13 38 8 17
-4 23 -2 18 6 -4 6 -16 11 -27 11 -11 0 -17 5 -14 10 4 6 16 8 27 5 14 -5 21
-1 25 14 5 19 21 26 46 22 5 -1 20 7 35 17 15 10 78 45 140 77 61 33 112 63
112 67 0 4 9 8 21 8 12 0 19 5 17 12 -6 17 -211 67 -273 68 -43 0 -75 -13
-235 -93 -101 -50 -186 -98 -188 -105 -4 -14 24 -2 186 76 51 24 95 42 97 40
3 -3 -46 -29 -108 -58 -61 -30 -125 -63 -141 -73 -23 -17 -30 -17 -37 -6 -11
17 -11 21 1 39 5 8 5 19 0 25 -15 19 -16 50 0 50 20 1 32 -18 17 -27 -7 -5 -2
-8 14 -8 14 0 34 6 45 14 18 13 16 15 -31 27 -44 11 -47 13 -27 22 15 7 30 7
45 -1 45 -22 78 -23 115 -4 104 52 190 91 218 97 21 4 79 -5 165 -24 128 -30
147 -30 149 -1 0 3 17 23 38 46 20 22 68 78 107 123 72 86 106 113 113 92 2
-6 11 -11 20 -11 10 0 37 -7 62 -16 25 -9 55 -16 68 -16 12 0 22 -5 22 -10 0
-6 7 -7 16 -4 8 3 31 -1 51 -9 19 -8 46 -15 59 -15 24 0 33 -23 14 -35 -6 -4
-8 -16 -5 -28 4 -15 3 -18 -3 -9 -7 10 -15 4 -36 -22 -15 -20 -23 -36 -19 -36
5 0 14 9 21 21 7 12 16 19 19 16 3 -3 -5 -20 -17 -37 -16 -23 -25 -28 -35 -20
-9 8 -17 4 -29 -15 -9 -14 -12 -25 -6 -25 5 0 10 5 10 10 0 6 7 10 16 10 14 0
14 -3 4 -15 -7 -8 -23 -15 -36 -15 -13 0 -24 -4 -24 -9 0 -5 28 -3 63 5 34 8
69 13 78 11 9 -2 16 2 16 9 0 8 -7 15 -16 15 -9 1 4 5 29 9 87 15 230 99 230
136 0 7 10 25 23 41 31 37 29 76 -5 102 -15 12 -29 30 -33 40 -3 10 -20 23
-38 29 l-32 11 31 -5 c28 -4 33 -1 44 26 13 31 77 81 102 79 7 0 4 -4 -7 -9
-18 -8 -17 -9 8 -9 22 -1 27 3 27 23 0 29 22 49 44 40 14 -6 16 13 16 189 l0
196 -42 5 c-24 3 -108 15 -188 26 -80 12 -201 28 -270 36 -152 18 -397 53
-665 94 -110 17 -212 29 -227 26 -15 -3 -30 -1 -34 5 -4 8 -9 7 -15 -2 -6 -10
-9 -11 -9 -1 0 6 -12 12 -28 12 -15 0 -42 4 -60 9 -21 7 -32 6 -32 -1 0 -7 -4
-7 -13 1 -10 8 -17 7 -27 -2 -8 -7 -11 -8 -7 -1 8 13 -11 19 -88 29 -46 6
-401 62 -541 85 -70 11 -114 11 -162 0z m392 -92 c-4 -13 -7 -90 -7 -173 0
-151 -13 -135 -17 20 -1 39 -5 90 -10 115 -7 33 -8 8 -6 -90 1 -79 -1 -123 -5
-105 -5 17 -6 -35 -3 -115 3 -79 3 -142 0 -140 -2 3 -11 106 -20 230 -9 124
-18 237 -21 253 -4 26 -4 27 46 27 48 0 50 -1 43 -22z m-816 -60 c5 -8 6 -22
1 -33 -4 -11 -8 -14 -8 -7 -1 6 -8 12 -16 12 -15 0 -21 21 -8 33 10 10 19 8
31 -5z m77 -68 c-3 -5 -11 -10 -16 -10 -6 0 -7 5 -4 10 3 6 11 10 16 10 6 0 7
-4 4 -10z m192 -16 c-3 -3 -12 -4 -19 -1 -8 3 -5 6 6 6 11 1 17 -2 13 -5z
m-172 -24 c3 -5 1 -10 -4 -10 -6 0 -11 5 -11 10 0 6 2 10 4 10 3 0 8 -4 11
-10z m1230 -20 c18 -8 17 -9 -7 -9 -16 -1 -28 4 -28 9 0 12 8 12 35 0z m-1233
-13 c7 -7 34 -29 60 -49 43 -33 51 -48 25 -48 -6 0 -7 3 -3 7 4 4 -17 13 -46
19 -61 14 -77 9 -30 -8 18 -7 32 -15 32 -19 0 -8 -100 8 -132 20 -21 9 -22 10
-2 10 32 1 37 14 12 28 -13 7 -17 12 -10 13 7 0 11 4 7 9 -15 25 64 41 87 18z
m54 -18 c19 -22 19 -22 -3 -10 -13 6 -23 16 -23 21 0 15 5 12 26 -11z m1314 1
c0 -5 -9 -6 -20 -3 -11 3 -17 9 -15 14 7 10 35 1 35 -11z m-40 -20 c0 -5 -5
-10 -11 -10 -5 0 -7 5 -4 10 3 6 8 10 11 10 2 0 4 -4 4 -10z m157 -6 c-3 -3
-12 -4 -19 -1 -8 3 -5 6 6 6 11 1 17 -2 13 -5z m-1201 -52 c-10 -9 -34 13 -33
29 1 19 2 18 18 -3 10 -12 16 -24 15 -26z m-843 14 c23 -18 22 -29 -2 -16 -11
5 -30 10 -42 10 -27 0 -79 -46 -79 -70 0 -9 -4 -20 -9 -25 -5 -6 -11 -21 -14
-35 -3 -19 -5 -17 -5 10 -2 46 31 118 60 130 33 13 70 11 91 -4z m2087 -12 c0
-2 -9 -4 -20 -4 -11 0 -20 4 -20 9 0 5 9 7 20 4 11 -3 20 -7 20 -9z m620 -31
c0 -13 4 -23 8 -23 5 0 9 -7 9 -15 0 -8 -8 -15 -18 -15 -21 0 -33 16 -19 25 6
4 7 12 1 22 -11 21 -2 60 10 41 5 -7 9 -23 9 -35z m-2015 27 c-3 -5 -1 -10 6
-10 6 0 9 -8 6 -19 -4 -16 0 -19 24 -16 27 4 28 3 14 -12 -14 -14 -14 -16 2
-28 22 -16 42 -3 44 29 1 20 27 -178 28 -218 1 -29 7 -16 15 29 5 28 4 36 -3
25 -7 -11 -10 17 -10 93 0 59 2 107 3 107 2 0 9 -53 15 -117 17 -168 16 -164
47 -153 25 10 26 9 19 -17 -14 -54 -13 -73 4 -74 10 0 11 -2 4 -6 -9 -3 -10
-10 -4 -21 9 -17 11 -24 11 -42 0 -18 20 -11 21 8 1 11 3 9 8 -7 4 -14 13 -27
20 -29 8 -3 11 0 7 7 -5 7 3 9 24 4 30 -6 76 10 92 32 5 6 8 6 8 -2 0 -8 12
-10 35 -6 30 5 34 3 29 -11 -3 -9 -2 -16 2 -16 26 1 51 45 31 54 -7 3 -1 3 12
0 24 -6 68 -41 60 -47 -2 -2 -61 -20 -130 -40 -107 -31 -132 -35 -163 -26 -20
6 -34 14 -31 20 4 5 2 9 -4 9 -6 0 -17 -24 -25 -52 -26 -93 -29 -108 -17 -109
41 -5 50 -16 47 -55 -4 -46 -13 -52 -27 -20 -16 35 -57 62 -73 46 -11 -11 -17
-129 -7 -128 3 0 24 -1 46 -2 35 -2 28 -5 -55 -26 -90 -23 -96 -24 -124 -8
-28 17 -29 16 -24 -4 5 -17 0 -23 -28 -32 -19 -6 -36 -16 -39 -21 -4 -5 3 -6
17 0 13 4 35 11 51 15 23 5 27 3 27 -14 0 -12 4 -18 10 -15 5 3 7 0 4 -8 -3
-10 2 -13 23 -10 24 4 31 0 41 -24 9 -21 11 -22 8 -5 -2 12 0 22 5 22 5 0 9
13 9 30 0 26 4 30 38 36 20 3 71 17 112 29 216 68 233 71 275 60 40 -12 40
-12 45 -68 3 -32 2 -57 -2 -57 -7 0 -11 14 -10 31 1 10 -63 -3 -78 -16 -8 -8
-34 -19 -57 -27 -47 -14 -51 -19 -28 -38 11 -9 21 -9 45 1 16 8 30 17 30 20 0
3 12 4 26 1 17 -3 25 -1 21 5 -4 7 8 10 32 9 49 -1 45 -10 -14 -26 -25 -7 -44
-15 -41 -17 2 -3 30 3 60 13 37 12 55 22 52 30 -3 8 1 11 9 7 8 -3 12 -10 8
-16 -3 -6 -1 -7 6 -3 8 5 7 13 -4 29 -8 12 -15 26 -15 32 0 5 4 4 9 -4 6 -8
16 -11 31 -6 18 6 20 9 9 16 -8 5 -24 9 -36 9 -20 0 -23 5 -22 38 0 35 1 36
11 12 6 -14 12 -20 15 -14 2 8 38 1 111 -19 123 -36 116 -33 108 -46 -5 -7
-15 -7 -32 -1 -14 6 -23 6 -20 1 5 -7 -173 -74 -227 -85 -7 -2 -19 -6 -27 -9
-8 -3 -35 -12 -60 -20 l-45 -14 72 -36 c78 -40 103 -62 56 -51 -15 4 -33 11
-39 15 -6 5 -31 13 -55 18 -77 17 -133 33 -181 51 -26 10 -50 15 -53 12 -11
-11 -39 -11 -52 0 -19 16 -21 9 -16 -48 l5 -52 46 -6 c24 -3 67 -6 94 -6 41 0
51 -3 55 -20 6 -23 11 -24 50 -9 47 18 99 12 140 -15 48 -33 61 -33 109 4 44
33 89 39 103 12 7 -14 -2 -30 -46 -81 -73 -86 -94 -141 -53 -141 11 0 20 5 20
11 0 8 5 8 15 -1 12 -10 15 -10 15 4 0 9 -7 16 -16 16 -11 0 -14 5 -10 16 3 9
6 20 6 25 0 6 5 7 12 3 6 -4 8 -3 5 4 -9 13 2 44 13 37 4 -2 5 -15 3 -29 -4
-21 -2 -23 24 -19 15 2 38 9 51 16 17 8 25 8 34 -1 15 -15 53 -15 150 0 125
19 284 -21 310 -78 31 -68 -46 -119 -207 -138 -34 -4 -44 -3 -30 3 11 5 31 10
45 10 39 2 101 21 95 30 -13 23 -213 30 -272 10 -58 -19 -45 -28 65 -44 23 -4
40 -10 37 -15 -3 -4 -7 -25 -11 -46 -7 -49 -11 -53 -22 -24 l-9 23 -21 -30
c-32 -45 -43 -81 -32 -101 35 -60 63 -171 40 -157 -5 3 -10 1 -10 -5 0 -6 -10
-10 -22 -8 -17 2 -25 12 -29 38 -4 19 -7 28 -8 18 -3 -36 -65 -28 -85 11 -8
14 -12 42 -9 61 11 87 26 142 43 158 17 16 24 39 21 72 -1 8 -17 25 -36 37
l-34 22 -3 -37 c-2 -23 -8 -36 -15 -35 -7 2 -13 -2 -13 -8 0 -5 -4 -8 -9 -4
-5 3 -12 1 -16 -5 -3 -5 -15 -10 -26 -10 -15 0 -19 7 -19 31 0 23 -4 30 -15
26 -8 -4 -27 0 -42 8 -15 8 -40 15 -54 15 -47 0 -119 -13 -119 -21 0 -5 -29
-37 -65 -71 -54 -52 -65 -69 -65 -96 0 -25 -11 -43 -51 -85 -57 -58 -84 -95
-77 -103 3 -3 -23 -35 -58 -71 -35 -37 -64 -71 -64 -75 0 -5 -20 -29 -45 -54
-34 -33 -45 -51 -45 -75 0 -38 -14 -66 -52 -102 -16 -16 -27 -31 -25 -34 10
-9 -15 -63 -26 -56 -6 4 -8 0 -4 -10 4 -11 -3 -18 -24 -26 -16 -5 -29 -15 -29
-20 0 -6 -5 -11 -12 -11 -6 0 -18 -7 -27 -15 -80 -73 -123 -100 -151 -96 -8 2
-12 -1 -7 -5 10 -11 -43 -64 -65 -64 -10 0 -18 -4 -18 -9 0 -5 -18 -16 -40
-25 -22 -9 -40 -20 -40 -25 0 -4 -12 -7 -26 -5 -16 1 -35 -5 -47 -17 -11 -10
-17 -19 -11 -20 5 -1 -2 -4 -16 -8 -13 -4 -27 -16 -30 -26 -3 -11 -13 -21 -24
-22 -17 -1 -18 5 -12 100 4 56 14 125 22 154 15 56 -3 40 231 200 41 28 87 63
102 76 14 13 34 28 43 33 17 9 133 134 210 225 136 163 247 343 248 402 0 11
8 31 19 45 10 15 28 46 40 69 21 42 83 91 164 129 l37 18 -31 19 c-17 11 -35
31 -40 44 -7 19 -14 23 -29 18 -12 -4 -27 -1 -35 5 -8 6 -19 9 -25 5 -5 -3
-16 -3 -22 1 -7 5 -44 9 -82 10 -37 2 -83 10 -100 18 -19 9 -56 14 -98 13 -38
-1 -68 0 -68 3 0 3 -11 6 -25 6 -14 1 -22 -2 -19 -7 3 -5 0 -9 -7 -9 -22 0
-119 -52 -142 -76 -23 -25 -37 -30 -37 -15 0 12 91 80 153 113 72 40 73 42 28
74 -22 16 -41 31 -41 34 0 3 37 16 83 29 101 30 96 27 90 51 -7 27 -20 26
-118 -14 -46 -19 -86 -31 -89 -28 -3 3 -6 -3 -6 -13 0 -16 -2 -17 -17 -3 -10
8 -28 15 -41 16 -20 1 -21 -1 -6 -15 13 -13 13 -18 2 -25 -10 -8 -10 -11 0
-15 6 -2 12 -13 12 -23 0 -11 8 -24 18 -29 16 -10 16 -10 0 -11 -10 0 -24 12
-33 28 l-15 27 6 -29 c6 -25 4 -28 -11 -23 -28 11 -74 51 -71 62 1 6 19 14 40
19 25 7 35 14 31 24 -3 8 3 16 14 19 12 3 17 11 14 19 -3 9 1 14 12 14 10 0
13 -5 9 -12 -4 -6 -3 -8 4 -4 5 3 12 1 14 -4 2 -7 17 -5 43 5 l40 15 -37 -4
c-33 -4 -40 -1 -58 25 -18 24 -19 29 -6 29 9 0 21 -9 28 -20 16 -25 28 -26 21
-2 -2 10 3 24 11 31 9 8 16 18 16 23 0 6 -8 4 -17 -3 -11 -10 -14 -10 -9 -1 4
6 2 12 -3 12 -6 0 -11 -7 -11 -15 0 -18 -16 -20 -26 -4 -3 6 -1 15 6 19 7 4 9
13 6 19 -11 17 -14 101 -4 107 4 3 8 13 8 23 0 26 26 46 43 33 6 -5 38 -14 69
-19 46 -8 62 -7 79 5 13 9 24 11 30 5 13 -13 32 -139 26 -164 -4 -16 0 -19 27
-19 56 0 70 18 63 85 -3 32 -1 95 5 141 7 57 7 92 0 112 -6 18 -7 45 -2 66 4
20 4 34 0 31 -4 -2 -10 14 -13 37 -3 23 -12 47 -19 53 -14 11 -16 16 -23 73
-13 101 -24 134 -43 130 -20 -4 -52 21 -52 39 0 7 8 14 18 14 16 1 16 2 0 6
-28 7 -23 73 4 73 5 0 6 -4 3 -10z m490 -20 c3 -5 -1 -10 -9 -10 -8 0 -18 5
-21 10 -3 6 1 10 9 10 8 0 18 -4 21 -10z m451 1 c-3 -5 1 -12 10 -15 22 -8 54
-8 54 2 0 4 11 7 24 7 13 0 24 -2 24 -5 -1 -21 5 -30 20 -30 10 0 24 -6 30
-12 10 -10 14 -8 19 11 5 20 8 21 17 10 6 -8 25 -20 41 -26 17 -6 39 -14 50
-18 19 -7 18 -8 -5 -16 -17 -5 -11 -6 20 -3 25 3 56 1 70 -5 21 -10 18 -10
-20 -6 l-45 5 35 -14 c48 -20 38 -19 -66 3 -190 41 -304 70 -304 78 0 9 21 43
26 43 3 0 3 -4 0 -9z m1537 -25 c29 -7 38 -26 11 -26 -8 0 -12 5 -8 11 3 6 -5
4 -18 -5 -34 -22 -33 -61 2 -61 18 0 25 5 24 17 -1 10 2 15 7 12 13 -8 11 -34
-2 -34 -8 0 -9 -4 0 -13 6 -8 8 -16 6 -19 -6 -5 -83 6 -89 13 -9 9 18 117 28
114 6 -2 23 -6 39 -9z m-1458 -71 c39 -10 79 -21 90 -26 11 -4 43 -15 70 -22
l50 -14 -57 1 c-31 0 -52 4 -45 8 8 5 7 8 -4 8 -9 0 -32 2 -50 5 -28 4 -30 4
-14 -5 18 -9 17 -10 -5 -5 -14 2 -42 5 -62 5 -28 0 -38 5 -43 21 -5 14 -13 19
-25 16 -12 -3 -21 3 -28 18 -10 22 -9 22 21 14 18 -4 64 -15 102 -24z m1236
25 c10 0 19 -7 19 -15 0 -16 -20 -19 -57 -9 -14 4 -20 11 -16 21 3 8 12 12 20
9 8 -3 23 -6 34 -6z m-588 -35 c-8 -22 -22 -18 -16 5 3 11 9 17 14 15 4 -3 6
-12 2 -20z m-95 -21 c-3 -14 -5 -12 -10 9 -3 19 -2 25 4 19 6 -6 8 -18 6 -28z
m-2367 3 c-10 -9 -11 -8 -5 6 3 10 9 15 12 12 3 -3 0 -11 -7 -18z m2198 -1 c9
-10 8 -16 -3 -25 -12 -10 -14 -9 -9 8 3 13 -1 21 -14 24 -14 4 -15 5 -2 6 9 0
22 -5 28 -13z m33 -40 c-20 -30 -38 -53 -40 -51 -6 5 22 61 42 83 36 41 35 22
-2 -32z m248 34 c-6 -11 -16 -20 -22 -20 -6 0 -3 9 7 20 10 11 20 20 22 20 2
0 -1 -9 -7 -20z m570 4 c0 -2 -13 -4 -30 -4 -16 0 -30 4 -30 8 0 5 14 7 30 4
17 -2 30 -6 30 -8z m-1323 -16 c-3 -8 -6 -5 -6 6 -1 11 2 17 5 13 3 -3 4 -12
1 -19z m843 -10 c0 -15 -5 -18 -22 -14 -13 3 -17 3 -10 0 6 -3 12 -10 12 -15
0 -5 -11 -3 -25 3 -30 14 -33 28 -5 28 11 0 20 7 20 15 0 9 6 12 15 9 8 -4 15
-15 15 -26z m-2415 -16 c-2 -9 -4 -21 -4 -25 -2 -23 -21 9 -21 35 0 25 3 28
14 19 8 -7 13 -20 11 -29z m2015 29 c0 -4 -11 -6 -25 -3 -14 2 -25 6 -25 8 0
2 11 4 25 4 14 0 25 -4 25 -9z m-1107 -8 c-7 -2 -19 -2 -25 0 -7 3 -2 5 12 5
14 0 19 -2 13 -5z m1252 -4 c3 -3 -1 -6 -7 -6 -7 0 -20 -3 -28 -5 -8 -3 -12
-3 -7 -1 4 3 5 9 1 14 -5 9 31 7 41 -2z m-608 -21 c-3 -8 -6 -5 -6 6 -1 11 2
17 5 13 3 -3 4 -12 1 -19z m1572 6 c11 -9 -8 -12 -51 -7 -26 3 -45 9 -42 14 5
8 83 2 93 -7z m-1222 0 c-3 -3 -12 -4 -19 -1 -8 3 -5 6 6 6 11 1 17 -2 13 -5z
m619 -34 c14 0 14 -3 4 -15 -7 -9 -16 -12 -19 -8 -3 5 -17 14 -31 21 -20 10
-21 11 -3 7 18 -5 21 -2 17 17 l-5 23 10 -22 c6 -13 18 -23 27 -23z m-346 20
c18 -12 2 -12 -25 0 -13 6 -15 9 -5 9 8 0 22 -4 30 -9z m-993 -32 c-3 -7 -5
-2 -5 12 0 14 2 19 5 13 2 -7 2 -19 0 -25z m846 17 c-3 -9 -8 -14 -10 -11 -3
3 -2 9 2 15 9 16 15 13 8 -4z m-2105 -11 c22 -15 32 -41 11 -29 -5 4 -19 -1
-29 -10 -18 -16 -20 -16 -39 2 l-21 20 22 -1 c16 -1 23 4 22 17 -2 21 5 21 34
1z m1007 -4 c-3 -5 -12 -10 -18 -10 -7 0 -6 4 3 10 19 12 23 12 15 0z m1155 0
c0 -5 10 -10 22 -10 12 0 19 -3 15 -6 -9 -9 -57 5 -57 16 0 6 5 10 10 10 6 0
10 -4 10 -10z m779 -50 c10 0 18 -7 18 -15 0 -11 -11 -15 -38 -15 -34 0 -37 2
-31 22 9 35 26 50 30 27 2 -10 11 -19 21 -19z m-2282 -38 c16 3 20 -11 26
-125 3 -48 0 -60 -15 -68 -22 -12 -44 -1 -80 40 -15 17 -34 28 -41 25 -17 -6
-32 12 -41 48 -5 23 -1 29 32 49 43 26 82 65 83 82 0 7 5 -3 10 -21 7 -22 15
-32 26 -30z m1903 35 c0 -12 -10 -28 -22 -36 -22 -13 -23 -13 -5 6 9 11 17 27
17 36 0 9 2 17 5 17 3 0 5 -10 5 -23z m573 -23 c-3 -8 6 -14 24 -16 22 -2 27
-7 25 -23 -5 -27 -3 -26 -45 -13 -35 11 -37 14 -31 42 3 17 9 35 11 40 8 12
22 -15 16 -30z m-1608 3 l50 -14 0 -44 0 -44 35 3 c23 2 31 0 22 -6 -8 -5 -13
-20 -12 -33 1 -13 1 -33 0 -44 l-1 -20 -9 20 c-7 17 -9 17 -9 3 -1 -10 -6 -18
-13 -18 -6 0 -3 -7 8 -15 18 -14 18 -14 -5 -15 -13 0 -53 5 -88 11 -60 11 -63
12 -63 39 0 16 5 30 11 32 6 2 13 24 16 50 5 40 2 48 -16 57 -13 7 -21 21 -21
38 0 28 -4 28 95 0z m202 17 c-3 -3 -12 -4 -19 -1 -8 3 -5 6 6 6 11 1 17 -2
13 -5z m664 -11 c13 -15 12 -15 -8 -4 -24 12 -29 21 -14 21 5 0 15 -7 22 -17z
m-2304 -18 c-15 -16 -19 -13 -11 9 3 9 10 13 15 10 5 -3 3 -11 -4 -19z m-77
-5 c0 -5 -7 -10 -15 -10 -8 0 -15 5 -15 10 0 6 7 10 15 10 8 0 15 -4 15 -10z
m-135 -10 c3 -5 -1 -10 -9 -10 -9 0 -16 5 -16 10 0 6 4 10 9 10 6 0 13 -4 16
-10z m1185 0 c0 -5 -5 -10 -11 -10 -5 0 -7 5 -4 10 3 6 8 10 11 10 2 0 4 -4 4
-10z m602 -31 c-3 -28 -7 -37 -13 -28 -13 21 -11 69 4 69 9 0 11 -12 9 -41z
m-1682 -9 c16 -14 19 -20 8 -20 -8 0 -23 9 -33 20 -10 11 -14 20 -8 20 5 0 20
-9 33 -20z m1091 -13 c-10 -9 -11 -8 -5 6 3 10 9 15 12 12 3 -3 0 -11 -7 -18z
m1946 17 c-3 -3 -12 -4 -19 -1 -8 3 -5 6 6 6 11 1 17 -2 13 -5z m133 -19 c0
-12 -19 -12 -23 0 -4 9 -1 12 9 8 7 -3 14 -7 14 -8z m-3190 -15 c0 -5 -4 -10
-10 -10 -5 0 -10 5 -10 10 0 6 5 10 10 10 6 0 10 -4 10 -10z m1135 -10 c-3 -5
-12 -10 -18 -10 -7 0 -6 4 3 10 19 12 23 12 15 0z m295 -5 c23 -8 30 -15 20
-18 -41 -14 -84 -27 -91 -27 -14 0 -10 19 9 39 20 23 18 23 62 6z m540 -83 c0
-9 -9 -23 -19 -29 -19 -12 -19 -12 -3 17 20 35 22 36 22 12z m-42 -22 c-11
-17 -10 -22 2 -31 13 -9 13 -10 -2 -6 -9 3 -19 1 -21 -6 -2 -7 -8 -8 -13 -4
-5 4 -2 12 5 16 8 5 10 14 6 21 -4 7 -2 16 6 21 23 15 30 10 17 -11z m-2093
-11 c-8 -12 -35 -12 -35 0 0 11 22 20 33 14 4 -2 5 -9 2 -14z m1550 12 c3 -5
1 -12 -5 -16 -5 -3 -10 1 -10 9 0 18 6 21 15 7z m-685 -31 c0 -5 -5 -10 -11
-10 -5 0 -7 5 -4 10 3 6 8 10 11 10 2 0 4 -4 4 -10z m37 -32 c-3 -7 -5 -2 -5
12 0 14 2 19 5 13 2 -7 2 -19 0 -25z m-1097 -28 c0 -5 -5 -10 -11 -10 -5 0 -7
5 -4 10 3 6 8 10 11 10 2 0 4 -4 4 -10z m37 -56 c-3 -3 -12 -4 -19 -1 -8 3 -5
6 6 6 11 1 17 -2 13 -5z m1603 -4 c0 -5 -9 -10 -20 -10 -11 0 -20 5 -20 10 0
6 9 10 20 10 11 0 20 -4 20 -10z m1068 -45 c-3 -3 -9 2 -12 12 -6 14 -5 15 5
6 7 -7 10 -15 7 -18z m-694 4 c-4 -8 0 -9 15 -4 14 4 27 1 37 -10 9 -9 24 -13
33 -10 10 4 13 3 6 -3 -5 -6 -33 -12 -61 -14 -44 -3 -50 -1 -52 17 0 11 4 23
11 27 17 11 19 10 11 -3z m126 -29 c0 -5 -5 -10 -11 -10 -5 0 -7 5 -4 10 3 6
8 10 11 10 2 0 4 -4 4 -10z m-335 -20 c3 6 11 8 16 5 5 -4 3 -12 -4 -19 -13
-15 -47 -4 -47 16 0 7 4 7 14 -1 10 -8 16 -9 21 -1z m105 -30 c0 -5 -7 -10
-15 -10 -8 0 -15 5 -15 10 0 6 7 10 15 10 8 0 15 -4 15 -10z m-120 -4 c0 -2
-7 -7 -16 -10 -8 -3 -12 -2 -9 4 6 10 25 14 25 6z m605 -76 c-16 -4 -39 -11
-50 -14 -13 -5 -12 -2 5 8 14 8 36 15 50 15 23 -1 22 -2 -5 -9z m68 3 c-7 -2
-19 -2 -25 0 -7 3 -2 5 12 5 14 0 19 -2 13 -5z m-1283 -43 c0 -5 -2 -10 -4
-10 -3 0 -8 5 -11 10 -3 6 -1 10 4 10 6 0 11 -4 11 -10z m-660 -17 c18 -2 40
-31 40 -52 0 -22 65 -72 98 -75 14 -2 32 3 40 10 10 11 17 11 35 1 38 -21 96
-80 90 -90 -4 -6 0 -8 8 -5 8 3 20 0 26 -7 10 -11 7 -17 -12 -29 -27 -17 -55
-21 -55 -7 0 5 -16 20 -35 35 l-34 26 4 -90 c4 -77 2 -91 -13 -99 -9 -5 -37
-30 -62 -55 -25 -25 -50 -46 -56 -46 -7 0 -17 30 -24 68 -6 37 -24 126 -40
197 -15 72 -31 147 -35 168 -3 21 -9 46 -12 54 -5 12 -3 14 8 7 8 -4 21 -9 29
-11z m420 -173 c0 -5 -5 -10 -11 -10 -5 0 -7 5 -4 10 3 6 8 10 11 10 2 0 4 -4
4 -10z m-53 -25 c0 -8 -4 -12 -9 -9 -5 3 -6 10 -3 15 9 13 12 11 12 -6z m1223
-43 c63 -19 113 -25 104 -11 -2 4 3 10 12 13 8 3 12 2 9 -4 -3 -5 -1 -18 5
-27 10 -16 11 -16 6 2 -6 19 -5 19 8 3 7 -10 18 -18 24 -18 5 0 8 -9 5 -20 -7
-26 -31 -25 -101 4 -31 13 -83 30 -114 37 -31 7 -54 17 -52 21 3 4 -2 8 -10 8
-9 0 -16 9 -16 20 0 19 2 20 28 7 15 -8 56 -23 92 -35z m1060 -59 c0 -26 -12
-35 -34 -27 -21 8 -20 20 2 49 19 25 32 16 32 -22z m-1212 1 c24 -17 29 -34 9
-34 -7 0 -18 -5 -25 -12 -20 -20 -48 -19 -68 3 -18 20 -18 21 6 40 31 23 49
24 78 3z m352 -28 c0 -3 -4 -8 -10 -11 -5 -3 -10 -1 -10 4 0 6 5 11 10 11 6 0
10 -2 10 -4z m-260 -30 c0 -11 -19 -15 -25 -6 -3 5 1 10 9 10 9 0 16 -2 16 -4z
m970 -70 c0 -2 -8 -10 -17 -17 -16 -13 -17 -12 -4 4 13 16 21 21 21 13z m-518
-142 c-2 -10 -13 -28 -24 -39 -19 -18 -20 -18 -14 -2 3 11 9 30 12 43 7 29 31
26 26 -2z m515 -32 c7 -4 9 -13 4 -21 -10 -16 -31 -6 -31 15 0 16 9 18 27 6z
m-817 -34 c0 -19 -2 -20 -10 -8 -13 19 -13 30 0 30 6 0 10 -10 10 -22z m900
-12 c0 -3 -4 -8 -10 -11 -5 -3 -10 -1 -10 4 0 6 5 11 10 11 6 0 10 -2 10 -4z
m28 -31 c-4 -17 -1 -25 8 -25 8 0 14 -9 14 -19 0 -17 -3 -18 -29 -8 -26 10
-34 37 -10 37 5 0 9 9 9 20 0 11 3 20 6 20 4 0 4 -11 2 -25z m-1184 -12 c10
-25 -35 -56 -48 -35 -5 9 24 52 35 52 4 0 10 -8 13 -17z m914 -48 c0 -19 -4
-35 -9 -35 -10 0 -12 31 -3 54 9 24 12 20 12 -19z m112 -20 c0 -5 -5 -3 -10 5
-5 8 -10 20 -10 25 0 6 5 3 10 -5 5 -8 10 -19 10 -25z m-70 10 c0 -8 -4 -15
-10 -15 -5 0 -7 7 -4 15 4 8 8 15 10 15 2 0 4 -7 4 -15z m-2077 -115 c1 -33 5
-60 8 -60 7 0 19 -54 25 -114 4 -36 3 -38 -10 -21 -8 11 -12 24 -9 29 4 5 1 6
-5 2 -6 -3 -26 4 -46 17 -19 13 -59 34 -90 47 l-56 22 44 37 c24 20 61 57 82
82 46 54 55 48 57 -41z m1734 46 c-34 -46 -47 -53 -26 -15 10 19 47 57 56 59
2 0 -12 -20 -30 -44z m484 11 c-10 -9 -11 -8 -5 6 3 10 9 15 12 12 3 -3 0 -11
-7 -18z m-86 -57 c17 0 29 -32 14 -41 -6 -4 -9 -11 -6 -16 11 -18 -55 0 -81
22 -2 2 2 21 9 44 l12 40 19 -24 c11 -14 25 -25 33 -25z m-8 28 c-3 -8 -6 -5
-6 6 -1 11 2 17 5 13 3 -3 4 -12 1 -19z m73 -33 c7 -9 8 -15 2 -15 -5 0 -12 7
-16 15 -3 8 -4 15 -2 15 2 0 9 -7 16 -15z m288 -93 c6 -9 12 -13 12 -9 0 3 26
-9 58 -26 31 -18 72 -39 90 -46 17 -7 32 -17 32 -21 0 -4 8 -10 18 -13 9 -3
28 -12 42 -20 14 -8 38 -21 53 -28 l29 -13 -40 -14 c-38 -12 -42 -11 -91 17
-28 17 -75 42 -106 56 -33 16 -53 31 -49 37 5 7 2 8 -5 3 -8 -4 -24 1 -39 12
-15 11 -47 29 -72 41 -44 21 -84 43 -162 91 -38 23 -49 35 -25 26 6 -3 25 -1
41 3 24 7 45 0 115 -36 47 -24 92 -51 99 -60z m-1363 -14 c4 -24 9 -49 11 -55
1 -7 -4 -13 -12 -13 -8 0 -14 5 -14 10 0 6 5 10 11 10 5 0 8 4 5 9 -3 5 -15 7
-26 4 -12 -3 -31 4 -49 20 -29 24 -29 24 -8 35 63 31 73 28 82 -20z m1198 -27
c44 -24 127 -72 324 -187 35 -20 42 -34 18 -34 -8 0 -15 -4 -15 -8 0 -9 -58
-71 -123 -131 -38 -36 -64 -36 -32 -1 10 11 15 20 10 20 -4 0 -13 -7 -19 -16
-11 -14 -16 -13 -57 7 -24 13 -55 34 -69 46 -14 13 -35 26 -47 29 -13 4 -20
10 -17 15 3 5 0 9 -7 9 -7 0 -27 11 -45 25 -18 14 -38 25 -44 25 -6 0 -24 14
-40 30 -17 17 -30 25 -30 19 0 -7 -3 -9 -6 -6 -4 4 2 19 12 34 19 29 21 33 23
57 0 8 12 24 26 37 13 13 25 29 25 34 0 6 -5 3 -10 -5 -15 -24 -12 -6 6 29 16
31 17 32 41 16 13 -9 48 -29 76 -44z m-1278 -21 c-3 -5 -12 -10 -18 -10 -7 0
-6 4 3 10 19 12 23 12 15 0z m880 -20 c-3 -5 -17 -10 -31 -10 -14 0 -22 4 -19
10 3 6 17 10 31 10 14 0 22 -4 19 -10z m-85 -75 c11 -13 11 -20 0 -40 -14 -26
-45 -33 -53 -12 -4 9 -8 9 -15 -2 -8 -12 -14 -12 -25 -3 -7 7 -17 9 -20 5 -7
-7 -6 46 0 60 8 14 100 8 113 -8z m-675 -5 c3 -5 2 -10 -4 -10 -5 0 -13 5 -16
10 -3 6 -2 10 4 10 5 0 13 -4 16 -10z m497 -32 c-6 -6 -7 0 -4 19 5 21 7 23
10 9 2 -10 0 -22 -6 -28z m-9 -35 c-7 -3 -13 -21 -13 -41 0 -28 -3 -33 -10
-22 -8 13 -10 13 -10 -2 0 -9 8 -19 18 -21 9 -3 -1 -5 -23 -4 -34 2 -39 5 -37
21 3 18 2 18 -14 5 -12 -9 -9 -3 6 19 13 17 30 32 37 32 7 0 13 4 13 9 0 5 8
11 18 13 20 5 32 -3 15 -9z m-2060 -75 c64 -218 61 -201 43 -254 -8 -27 -17
-89 -19 -137 -3 -49 -9 -93 -16 -100 -8 -8 -11 -7 -11 4 0 10 -2 11 -8 2 -21
-33 -172 66 -172 112 0 9 -13 28 -28 43 -16 16 -32 40 -36 55 -4 18 -13 27
-26 27 -10 0 -22 5 -25 10 -3 6 -17 10 -30 10 -13 0 -36 13 -52 29 -23 22 -36
28 -57 24 -22 -5 -28 -1 -33 16 -4 16 -11 20 -32 16 l-26 -5 25 10 c14 6 33 9
44 6 10 -3 25 1 33 9 7 8 20 12 28 9 8 -4 15 -1 15 5 0 7 30 25 68 42 126 57
207 98 242 123 19 14 38 25 42 26 4 0 18 -37 31 -82z m2077 31 c0 -10 4 -19 9
-19 4 0 6 12 3 26 -4 21 -2 25 9 18 8 -5 16 -9 19 -10 3 0 12 -4 20 -7 8 -3
28 -7 45 -9 26 -3 31 -8 38 -43 9 -45 10 -75 4 -82 -3 -2 -28 3 -56 13 -43 14
-56 23 -74 58 -26 49 -39 88 -26 80 5 -3 9 -14 9 -25z m150 11 c0 -5 -2 -10
-4 -10 -3 0 -8 5 -11 10 -3 6 -1 10 4 10 6 0 11 -4 11 -10z m-296 -44 c-6 -16
24 -26 86 -26 44 0 47 -2 60 -37 8 -21 17 -42 19 -47 2 -5 -3 -5 -10 -1 -8 5
2 -8 21 -29 19 -20 46 -43 60 -51 14 -8 38 -25 54 -40 17 -14 41 -28 55 -31
46 -10 51 -13 61 -39 10 -26 83 -103 114 -120 15 -9 17 -17 11 -43 -9 -41 -19
-40 -40 4 -11 24 -21 34 -31 30 -8 -3 -13 -2 -9 3 3 5 -9 13 -27 16 -37 8
-120 65 -143 98 -8 12 -15 18 -15 14 0 -8 -60 34 -88 61 -8 7 -30 24 -50 39
-100 74 -152 125 -153 151 0 18 -3 22 -7 12 -7 -16 -25 -20 -38 -8 -3 4 7 15
25 25 17 10 31 21 31 26 0 4 4 7 10 7 5 0 7 -6 4 -14z m755 -36 c23 -12 36
-41 15 -33 -9 3 -14 -1 -14 -13 0 -14 -3 -15 -12 -6 -7 7 -22 12 -35 12 -18 0
-25 -7 -30 -30 l-6 -31 -23 22 c-30 28 -30 36 -2 45 13 4 28 14 34 22 9 12 15
12 34 2 20 -11 22 -10 17 4 -7 19 -3 20 22 6z m-242 -45 c0 -10 -10 -15 -26
-15 l-26 1 25 14 c14 8 25 14 26 15 0 0 1 -7 1 -15z m-214 -46 c31 -6 57 -16
57 -20 0 -5 7 -9 15 -9 12 0 13 -5 3 -27 -7 -16 -13 -29 -14 -31 -4 -8 -114
41 -129 58 -10 11 -14 20 -9 20 5 0 1 5 -8 11 -10 5 -22 19 -28 30 -11 19 -10
19 22 -1 18 -11 59 -25 91 -31z m-323 24 c14 -9 43 -33 66 -52 23 -20 71 -58
109 -86 37 -27 91 -70 120 -95 53 -46 80 -68 107 -85 57 -37 128 -103 128
-117 0 -11 8 -18 18 -18 10 0 34 -16 53 -36 28 -29 39 -34 62 -30 23 5 28 3
25 -12 -2 -9 8 -27 22 -40 18 -17 12 -15 -22 7 -26 17 -49 31 -52 31 -2 0 -8
-29 -11 -65 -4 -36 -10 -65 -12 -65 -7 0 -136 106 -177 145 -18 17 -50 44 -71
60 -35 27 -113 92 -125 105 -3 3 -42 36 -88 74 -45 38 -79 73 -75 78 3 6 2 9
-3 5 -15 -9 -47 20 -38 34 5 9 2 10 -11 6 -9 -4 -24 -2 -31 4 -12 10 -12 13 2
23 13 10 14 16 3 39 -6 14 -16 24 -20 21 -5 -3 -9 1 -9 10 0 8 -3 22 -6 30 -5
12 -2 15 10 10 9 -3 16 -1 16 5 0 6 -7 11 -15 11 -8 0 -15 5 -15 10 0 14 12
12 40 -7z m390 1 c0 -2 -13 -4 -30 -4 -16 0 -30 4 -30 8 0 5 14 7 30 4 17 -2
30 -6 30 -8z m53 -1 c-7 -2 -21 -2 -30 0 -10 3 -4 5 12 5 17 0 24 -2 18 -5z
m37 -63 l25 -20 -32 11 c-18 6 -33 15 -33 20 0 14 13 10 40 -11z m445 0 c3 -5
1 -10 -4 -10 -6 0 -11 5 -11 10 0 6 2 10 4 10 3 0 8 -4 11 -10z m425 -54 c0
-65 -10 -106 -27 -106 -9 0 -13 6 -10 14 3 8 9 42 13 75 8 70 24 82 24 17z
m-50 16 c0 -10 -6 -19 -13 -19 -7 0 -14 9 -14 19 -1 10 5 18 13 18 8 0 14 -8
14 -18z m-294 -69 c-1 -16 -5 -34 -9 -41 -5 -7 -6 -22 -2 -35 6 -21 6 -21 -9
-3 -9 11 -16 16 -16 11 0 -4 -9 0 -20 10 -28 25 -25 47 8 67 39 24 50 22 48
-9z m-171 -24 c32 -12 61 -44 47 -52 -4 -3 -29 11 -56 29 -50 35 -46 43 9 23z
m-345 -42 c0 -5 -4 -5 -10 -2 -5 3 -10 14 -10 23 0 15 2 15 10 2 5 -8 10 -19
10 -23z m332 -8 c20 -15 26 -25 19 -32 -7 -7 -24 1 -55 24 -25 19 -46 37 -46
41 0 11 48 -9 82 -33z m-262 21 c8 -5 11 -10 5 -10 -5 0 -17 5 -25 10 -8 5
-10 10 -5 10 6 0 17 -5 25 -10z m147 -66 c-3 -3 -12 -4 -19 -1 -8 3 -5 6 6 6
11 1 17 -2 13 -5z m-52 -54 c3 -5 1 -10 -4 -10 -6 0 -11 5 -11 10 0 6 2 10 4
10 3 0 8 -4 11 -10z m0 -33 c3 -4 2 -5 -2 -2 -3 3 -17 -2 -30 -10 -24 -16 -26
-15 -18 7 6 15 40 18 50 5z m325 3 c0 -5 -4 -10 -10 -10 -5 0 -10 5 -10 10 0
6 5 10 10 10 6 0 10 -4 10 -10z m-280 -10 c0 -5 -4 -10 -10 -10 -5 0 -10 5
-10 10 0 6 5 10 10 10 6 0 10 -4 10 -10z m215 -60 c3 -6 -1 -7 -9 -4 -18 7
-21 14 -7 14 6 0 13 -4 16 -10z m-35 -246 c0 -2 -9 0 -20 6 -11 6 -20 13 -20
16 0 2 9 0 20 -6 11 -6 20 -13 20 -16z m-281 -183 c-7 -89 -16 -161 -21 -161
-4 0 -8 -9 -8 -21 0 -11 5 -17 10 -14 6 3 10 -1 10 -9 0 -16 10 -20 44 -16 13
1 17 -3 13 -13 -3 -8 0 -14 8 -13 21 2 125 -87 119 -103 -3 -8 1 -11 11 -8 8
4 17 2 20 -3 5 -9 -16 -14 -52 -13 -7 0 -12 -2 -11 -6 2 -17 -3 -25 -10 -14
-4 6 -6 -26 -4 -70 2 -50 10 -91 19 -105 8 -13 12 -27 8 -30 -4 -4 -11 1 -16
10 -6 11 -21 16 -49 14 -40 -1 -50 7 -50 44 0 18 -54 80 -70 80 -13 0 -17 31
-14 105 1 47 -1 62 -6 45 -5 -15 -7 29 -4 105 4 167 6 178 22 136 4 -11 8 13
8 57 1 59 0 67 -5 35 -4 -24 -10 -46 -14 -49 -9 -9 -9 25 0 96 l6 55 14 -30
13 -30 -6 39 c-5 27 -3 41 7 47 7 4 15 6 17 4 2 -1 -2 -76 -9 -164z m-2665 36
c16 -12 9 -19 -80 -78 -54 -35 -115 -73 -135 -85 -20 -11 -74 -50 -121 -86
-95 -74 -150 -106 -146 -86 2 7 21 26 44 43 44 33 133 107 171 142 12 12 23
21 23 19 0 -2 15 11 34 29 19 17 65 47 103 66 37 19 70 37 71 42 5 10 16 9 36
-6z m3135 -31 c10 -12 8 -13 -8 -9 -12 3 -21 9 -21 14 0 14 16 11 29 -5z m66
-37 c22 -10 51 -27 64 -39 22 -19 23 -25 19 -110 -2 -49 -7 -92 -11 -96 -6 -6
-39 20 -142 111 -16 15 -29 34 -27 42 2 10 -1 12 -9 7 -9 -5 -10 -1 -6 17 4
13 7 39 7 57 0 30 2 32 33 30 17 -1 50 -10 72 -19z m-3710 -291 c-11 -6 -23
-16 -27 -22 -5 -8 -8 -7 -8 1 0 12 28 32 45 32 6 0 1 -5 -10 -11z m15 -72 c0
-2 -12 -11 -27 -20 l-28 -17 24 20 c23 21 31 25 31 17z m3109 -76 c0 -9 -4 -8
-9 5 -5 11 -9 27 -9 35 0 9 4 8 9 -5 5 -11 9 -27 9 -35z m-15 -55 c5 -22 4
-26 -4 -15 -5 8 -10 24 -10 34 0 26 6 18 14 -19z"/>
<path d="M2522 4035 c0 -16 2 -22 5 -12 2 9 2 23 0 30 -3 6 -5 -1 -5 -18z"/>
<path d="M2081 3714 c0 -11 3 -14 6 -6 3 7 2 16 -1 19 -3 4 -6 -2 -5 -13z"/>
<path d="M1933 3033 c9 -2 23 -2 30 0 6 3 -1 5 -18 5 -16 0 -22 -2 -12 -5z"/>
<path d="M1927 2986 c-9 -7 -29 -11 -43 -8 -19 3 -25 1 -20 -7 4 -6 27 -11 51
-11 32 0 43 4 41 15 -3 22 -9 25 -29 11z"/>
<path d="M2450 2950 c-12 -8 -11 -10 8 -10 12 0 22 5 22 10 0 13 -11 13 -30 0z"/>
<path d="M1868 2893 c7 -3 16 -2 19 1 4 3 -2 6 -13 5 -11 0 -14 -3 -6 -6z"/>
<path d="M2155 2870 c3 -5 10 -10 16 -10 5 0 9 5 9 10 0 6 -7 10 -16 10 -8 0
-12 -4 -9 -10z"/>
<path d="M2455 2830 c-13 -6 -15 -9 -5 -9 8 0 22 4 30 9 18 12 2 12 -25 0z"/>
<path d="M2398 2813 c7 -3 16 -2 19 1 4 3 -2 6 -13 5 -11 0 -14 -3 -6 -6z"/>
<path d="M2769 2472 c-25 -3 -27 -6 -21 -44 4 -30 2 -39 -6 -34 -8 5 -12 -2
-11 -21 1 -17 3 -21 6 -10 3 12 14 17 38 17 28 0 33 4 37 28 3 15 8 34 12 43
8 19 -13 26 -55 21z"/>
<path d="M2953 3687 c5 -15 37 -22 37 -9 0 5 -9 12 -21 15 -13 3 -19 1 -16 -6z"/>
<path d="M1846 3434 c-9 -24 -7 -34 6 -34 7 0 25 -12 40 -27 23 -22 28 -24 28
-10 0 42 -62 102 -74 71z"/>
<path d="M1700 2659 c0 -5 5 -7 10 -4 6 3 10 8 10 11 0 2 -4 4 -10 4 -5 0 -10
-5 -10 -11z"/>
<path d="M4159 1927 c6 -8 7 -18 3 -22 -4 -5 -2 -5 5 -1 14 8 6 36 -9 36 -7 0
-6 -5 1 -13z"/>
<path d="M4399 1765 c23 -14 46 -25 50 -25 10 1 -73 50 -84 50 -5 0 10 -11 34
-25z"/>
<path d="M3924 1905 c3 -22 13 -28 31 -18 14 8 13 11 -9 21 -19 9 -24 8 -22
-3z"/>
<path d="M4020 1850 c-9 -6 -10 -10 -3 -10 6 0 15 5 18 10 8 12 4 12 -15 0z"/>
<path d="M4054 1842 c3 -5 -6 -13 -21 -17 -21 -5 -24 -8 -12 -16 7 -5 19 -9
24 -9 6 0 3 5 -5 10 -9 6 -10 10 -3 10 6 0 19 3 29 7 13 5 15 3 9 -7 -5 -9 -4
-11 3 -6 16 10 15 14 -9 27 -12 6 -19 7 -15 1z"/>
<path d="M3870 1826 c0 -9 5 -16 10 -16 6 0 10 4 10 9 0 6 -4 13 -10 16 -5 3
-10 -1 -10 -9z"/>
<path d="M3860 1760 c0 -5 5 -10 10 -10 6 0 10 5 10 10 0 6 -4 10 -10 10 -5 0
-10 -4 -10 -10z"/>
<path d="M3927 1739 c7 -7 15 -10 18 -7 3 3 -2 9 -12 12 -14 6 -15 5 -6 -5z"/>
<path d="M3980 1730 c12 -11 24 -33 25 -50 3 -30 15 -56 15 -32 0 7 5 12 11
12 5 0 7 -4 4 -10 -3 -5 -1 -10 4 -10 17 0 13 18 -6 29 -14 8 -11 9 15 6 19
-2 39 -10 45 -18 8 -10 19 -12 31 -8 17 7 18 8 3 14 -10 4 -17 1 -17 -6 0 -6
-7 -1 -16 11 -8 12 -22 22 -30 22 -8 0 -14 5 -14 10 0 6 -5 10 -11 10 -6 0
-22 9 -36 20 -33 26 -53 26 -23 0z m60 -34 c0 -2 -7 -7 -16 -10 -8 -3 -12 -2
-9 4 6 10 25 14 25 6z"/>
<path d="M4121 1717 c2 -2 11 -8 20 -15 12 -9 16 -9 16 1 0 7 -9 14 -20 14
-11 1 -18 1 -16 0z"/>
<path d="M4317 1684 c7 -3 9 -13 6 -22 -4 -14 -3 -14 5 -2 12 16 7 30 -11 29
-9 0 -9 -2 0 -5z"/>
<path d="M4274 1629 c-3 -6 -1 -16 5 -22 9 -9 10 -7 5 7 -6 15 -4 17 6 11 9
-5 11 -4 6 3 -9 15 -13 15 -22 1z"/>
<path d="M895 1490 c-3 -5 1 -10 10 -10 9 0 13 5 10 10 -3 6 -8 10 -10 10 -2
0 -7 -4 -10 -10z"/>
<path d="M3218 1396 c-26 -19 -22 -26 7 -13 14 7 25 15 25 20 0 11 -13 8 -32
-7z"/>
<path d="M3760 436 c0 -2 8 -10 18 -17 15 -13 16 -12 3 4 -13 16 -21 21 -21
13z"/>
<path d="M3940 300 c-9 -6 -10 -10 -3 -10 6 0 15 5 18 10 8 12 4 12 -15 0z"/>
<path d="M2878 4213 c7 -3 16 -2 19 1 4 3 -2 6 -13 5 -11 0 -14 -3 -6 -6z"/>
<path d="M4574 4161 c4 -6 2 -11 -3 -11 -6 0 -11 -4 -11 -9 0 -5 9 -7 20 -4
22 6 22 24 0 31 -7 3 -10 0 -6 -7z"/>
<path d="M4480 4147 c-14 -5 -53 -11 -86 -12 -74 -3 -124 -24 -59 -25 30 0 36
-3 25 -10 -11 -7 -2 -9 30 -6 67 6 150 26 150 36 0 18 -35 28 -60 17z"/>
<path d="M848 3943 c7 -3 16 -2 19 1 4 3 -2 6 -13 5 -11 0 -14 -3 -6 -6z"/>
<path d="M773 3924 c-3 -8 -1 -25 5 -37 10 -19 10 -18 5 10 -4 27 -2 32 18 36
l24 4 -23 2 c-12 0 -25 -6 -29 -15z"/>
<path d="M2020 3851 c0 -9 30 -24 36 -18 2 1 -6 8 -16 15 -11 7 -20 8 -20 3z"/>
<path d="M4500 3410 c0 -5 -6 -7 -14 -4 -8 3 -17 0 -22 -7 -4 -7 -3 -10 4 -5
6 3 13 2 17 -4 4 -6 -5 -10 -19 -10 -22 0 -26 -4 -26 -31 0 -34 15 -69 30 -69
6 0 10 9 10 20 0 13 9 22 26 26 21 5 25 11 21 30 -2 13 -1 21 3 19 4 -3 8 7 8
20 0 18 -6 25 -19 25 -11 0 -19 -4 -19 -10z"/>
<path d="M3814 3171 c3 -5 -3 -16 -14 -26 -11 -10 -20 -21 -20 -25 0 -4 27
-15 60 -25 34 -10 57 -22 53 -28 -3 -6 -1 -7 5 -3 7 4 37 -1 67 -10 l54 -17
24 25 c29 32 41 59 23 52 -7 -3 -40 4 -72 15 -104 35 -187 54 -180 42z"/>
<path d="M3850 3045 c-6 -7 -18 -11 -25 -9 -20 8 -12 -46 8 -58 25 -13 63 1
75 28 8 17 17 22 29 17 10 -3 15 -3 12 1 -4 4 -16 8 -27 11 -11 2 -30 8 -40
14 -15 8 -23 7 -32 -4z"/>
<path d="M3715 3030 c-3 -5 1 -10 10 -10 9 0 13 5 10 10 -3 6 -8 10 -10 10 -2
0 -7 -4 -10 -10z"/>
<path d="M3954 3010 c-31 -12 -38 -38 -9 -32 13 2 25 13 28 23 3 10 4 19 4 18
-1 0 -11 -4 -23 -9z"/>
<path d="M4260 2975 c0 -7 61 -37 66 -33 2 3 -12 12 -31 21 -19 9 -35 15 -35
12z"/>
<path d="M3843 2922 c-6 -4 18 -8 53 -9 39 -1 108 -14 170 -33 58 -17 110 -30
116 -28 5 2 -50 20 -124 41 -130 36 -191 44 -215 29z"/>
<path d="M4208 2843 c7 -3 16 -2 19 1 4 3 -2 6 -13 5 -11 0 -14 -3 -6 -6z"/>
<path d="M4258 2833 c6 -2 18 -2 25 0 6 3 1 5 -13 5 -14 0 -19 -2 -12 -5z"/>
<path d="M3870 2710 c0 -19 4 -22 33 -24 6 -1 20 -14 30 -30 10 -15 21 -25 25
-21 4 4 1 10 -6 12 -6 3 -9 9 -6 14 3 6 10 6 17 1 27 -20 47 -21 57 -2 9 17 5
21 -30 31 -22 7 -40 16 -40 21 0 5 -4 6 -10 3 -5 -3 -10 -1 -10 4 0 6 -13 11
-30 11 -23 0 -30 -4 -30 -20z"/>
<path d="M3721 2664 c0 -11 3 -14 6 -6 3 7 2 16 -1 19 -3 4 -6 -2 -5 -13z"/>
<path d="M4214 2596 c-3 -8 -4 -22 -2 -32 3 -16 25 -26 273 -128 50 -21 96
-40 103 -43 10 -4 13 5 10 37 l-3 42 -85 35 c-110 45 -268 103 -281 103 -5 0
-12 -6 -15 -14z"/>
<path d="M4273 2386 c3 -8 1 -17 -6 -20 -7 -2 -4 -5 6 -5 11 -1 17 6 17 19 0
11 -5 20 -11 20 -6 0 -9 -6 -6 -14z"/>
<path d="M4356 2344 c-8 -21 -8 -24 5 -24 5 0 7 5 4 10 -3 6 -1 10 4 10 6 0
11 5 11 10 0 16 -17 12 -24 -6z"/>
<path d="M4505 2328 c-4 -18 -17 -70 -31 -114 -13 -45 -24 -86 -24 -91 0 -8
126 -73 143 -73 4 0 7 63 7 139 l0 139 -27 10 c-16 5 -35 13 -45 17 -12 5 -18
-1 -23 -27z"/>
<path d="M4250 2321 c-7 -14 -7 -22 1 -27 10 -6 28 11 29 28 0 17 -20 17 -30
-1z"/>
<path d="M4338 2276 c-3 -14 -2 -26 2 -26 13 0 21 33 12 42 -6 6 -11 -1 -14
-16z"/>
<path d="M4234 2235 c3 -8 2 -15 -2 -15 -4 0 -8 -9 -9 -20 -1 -11 2 -20 8 -20
5 0 9 9 9 19 0 11 5 23 10 26 12 7 4 25 -12 25 -5 0 -8 -7 -4 -15z"/>
<path d="M4320 2200 c0 -5 5 -10 11 -10 5 0 7 5 4 10 -3 6 -8 10 -11 10 -2 0
-4 -4 -4 -10z"/>
<path d="M4205 2156 c1 -12 -3 -25 -9 -29 -7 -5 -4 -7 8 -5 27 4 40 45 17 51
-13 3 -17 -1 -16 -17z"/>
<path d="M4310 2160 c0 -17 2 -19 14 -8 14 13 12 28 -5 28 -5 0 -9 -9 -9 -20z"/>
<path d="M4296 2114 c-10 -25 -7 -44 7 -44 7 0 12 13 12 30 1 32 -9 40 -19 14z"/>
<path d="M4441 2025 c-1 -12 4 -26 11 -33 15 -15 38 -16 38 -2 0 6 -7 10 -15
10 -9 0 -20 10 -25 23 -8 21 -9 21 -9 2z"/>
<path d="M4317 1980 c-4 -14 4 -25 32 -42 65 -40 83 -48 92 -42 5 3 9 0 9 -5
0 -13 49 -14 68 -2 11 7 -61 48 -189 108 -4 1 -9 -6 -12 -17z"/>
<path d="M4516 1984 c-12 -30 -6 -42 30 -63 46 -28 51 -27 52 12 1 26 -5 35
-29 50 -38 21 -45 21 -53 1z m39 -31 c1 -14 -3 -19 -12 -16 -16 6 -18 46 -1
41 6 -2 12 -14 13 -25z"/>
<path d="M4511 1871 c-10 -7 0 -13 35 -23 42 -12 49 -12 52 0 7 28 -54 43 -87
23z"/>
<path d="M4508 1813 c7 -3 16 -2 19 1 4 3 -2 6 -13 5 -11 0 -14 -3 -6 -6z"/>
<path d="M1384 568 c-46 -34 -51 -41 -18 -25 27 14 64 47 52 47 -3 0 -18 -10
-34 -22z"/>
<path d="M1285 536 c-54 -38 -285 -273 -293 -297 -2 -5 0 -9 5 -9 10 0 93 80
93 90 0 12 152 165 190 190 43 29 86 70 73 70 -5 0 -36 -20 -68 -44z"/>
<path d="M948 193 c7 -3 16 -2 19 1 4 3 -2 6 -13 5 -11 0 -14 -3 -6 -6z"/>
<path d="M4048 3 c6 -2 18 -2 25 0 6 3 1 5 -13 5 -14 0 -19 -2 -12 -5z"/>
</g>
</svg>
